inDegrees=yes
name=ik_Xsens_quaternion
DataType=double
version=3
OpenSimVersion=4.4-2022-07-23-0e9fedc
endheader
time	pelvis_tilt	pelvis_list	pelvis_rotation	pelvis_tx	pelvis_ty	pelvis_tz	hip_flexion_r	hip_adduction_r	hip_rotation_r	knee_angle_r	knee_angle_r_beta	ankle_angle_r	subtalar_angle_r	mtp_angle_r	hip_flexion_l	hip_adduction_l	hip_rotation_l	knee_angle_l	knee_angle_l_beta	ankle_angle_l	subtalar_angle_l	mtp_angle_l	lumbar_extension	lumbar_bending	lumbar_rotation	arm_flex_r	arm_add_r	arm_rot_r	elbow_flex_r	pro_sup_r	wrist_flex_r	wrist_dev_r	arm_flex_l	arm_add_l	arm_rot_l	elbow_flex_l	pro_sup_l	wrist_flex_l	wrist_dev_l
50.21666666666667	0	0	0	0	0.93	0	4.594144125593695e-49	0	0	2.426570649309934e-20	-1.0483081030375e-22	0	0	0	4.594144125593695e-49	0	0	2.426570649309934e-20	-1.0483081030375e-22	0	0	0	0	0	0	2.192638403816417	-8.067005292925741	13.08261574155649	0.004709345326962633	-0.001331728736812938	0	0	352.026098886616	-2.231561351432069	376.4125663484264	-0.0009309980904114031	-0.008347582889838997	0	0
50.23333333333333	0	0	0	0	0.93	0	4.594144125593695e-49	0	0	2.426570649309934e-20	-1.0483081030375e-22	0	0	0	4.594144125593695e-49	0	0	2.426570649309934e-20	-1.0483081030375e-22	0	0	0	0	0	0	2.190282463742222	-8.069821642478791	13.07541844398984	0.004709345326962633	-0.001331728736812938	0	0	352.0264149771876	-2.241150445583204	376.4093977205517	-0.0009309980904114031	-0.008347582889838997	0	0
50.25	0	0	0	0	0.93	0	4.594144125593695e-49	0	0	2.426570649309934e-20	5.451202135794993e-23	0	0	0	4.594144125593695e-49	0	0	2.426570649309934e-20	5.451202135794993e-23	0	0	0	0	0	0	2.189832517412637	-8.073564902700822	13.0608421606449	0.004709345326962633	-0.001331728736812938	0	0	352.0257537468869	-2.250713762489024	376.3948917921696	-0.0009309980904114031	-0.008347582889838997	0	0
50.26666666666667	0	0	0	0	0.93	0	4.594144125593695e-49	0	0	2.426570649309934e-20	2.096616206075103e-24	0	0	0	4.594144125593695e-49	0	0	2.426570649309934e-20	2.096616206075103e-24	0	0	0	0	0	0	2.18952965296843	-8.076708410808918	13.04394097899411	0.004709345326962633	-0.001331728736812938	0	0	352.0265765750253	-2.25765544846382	376.3782134783351	-0.0009309980904114031	-0.008347582889838997	0	0
50.28333333333333	0	0	0	0	0.93	0	4.594144125593695e-49	0	0	2.426570649309934e-20	2.096616206075103e-24	0	0	0	4.594144125593695e-49	0	0	2.426570649309934e-20	2.096616206075103e-24	0	0	0	0	0	0	2.188745838930503	-8.081050122120139	13.02841531922259	0.004709345326962633	-0.001331728736812938	0	0	352.029637670996	-2.265246739055477	376.3713141998468	-0.0009309980904114031	-0.008347582889838997	0	0
50.3	0	0	0	0	0.93	0	4.594144125593695e-49	0	0	2.426570649309934e-20	2.096616206075103e-24	0	0	0	4.594144125593695e-49	0	0	2.426570649309934e-20	2.096616206075103e-24	0	0	0	0	0	0	2.187786698027594	-8.085738514893521	13.01517507174438	0.004709345326962633	-0.001331728736812938	0	0	352.0328825570629	-2.271881711169714	376.3719438187065	-0.0009309980904114031	-0.008347582889838997	0	0
50.31666666666666	0	0	0	0	0.93	0	4.594144125593695e-49	0	0	2.426570649309934e-20	5.451202135795012e-23	0	0	0	4.594144125593695e-49	0	0	2.426570649309934e-20	5.451202135795012e-23	0	0	0	0	0	0	2.187829276833104	-8.089665891272755	13.00828262509555	0.004709345326962633	-0.001331728736812938	0	0	352.0342316268593	-2.275768729546951	376.3710221073204	-0.0009309980904114031	-0.008347582889838997	0	0
50.33333333333334	0	0	0	0	0.93	0	4.594144125593695e-49	0	0	2.426570649309934e-20	5.451202135795012e-23	0	0	0	4.594144125593695e-49	0	0	2.426570649309934e-20	5.451202135795012e-23	0	0	0	0	0	0	2.188534012671068	-8.093286517084307	13.00489463524507	0.004709345326962633	-0.001331728736812938	0	0	352.0319995294648	-2.275707597455895	376.3636495171718	-0.0009309980904114031	-0.008347582889838997	0	0
50.35	0	0	0	0	0.93	0	4.594144125593695e-49	0	0	2.426570649309934e-20	5.451202135795012e-23	0	0	0	4.594144125593695e-49	0	0	2.426570649309934e-20	5.451202135795012e-23	0	0	0	0	0	0	2.190805156638242	-8.096656424997333	13.00005119826653	0.004709345326962633	-0.001331728736812938	0	0	352.0285420252987	-2.27400531579655	376.3535529963712	-0.0009309980904114031	-0.008347582889838997	0	0
50.36666666666667	0	0	0	0	0.93	0	4.594144125593695e-49	0	0	2.426570649309934e-20	2.096616206075103e-24	0	0	0	4.594144125593695e-49	0	0	2.426570649309934e-20	2.096616206075103e-24	0	0	0	0	0	0	2.191635859394029	-8.10176048120214	12.99471846641745	0.004709345326962633	-0.001331728736812938	0	0	352.0276285380212	-2.272170329358755	376.350671971232	-0.0009309980904114031	-0.008347582889838997	0	0
50.38333333333333	0	0	0	0	0.93	0	4.594144125593695e-49	0	0	2.426570649309934e-20	2.096616206075103e-24	0	0	0	4.594144125593695e-49	0	0	2.426570649309934e-20	2.096616206075103e-24	0	0	0	0	0	0	2.191001109027763	-8.11237814716559	12.99332046802004	0.004709345326962633	-0.001331728736812938	0	0	352.0254150026764	-2.269368437178742	376.3509026589907	-0.0009309980904114031	-0.008347582889838997	0	0
50.4	0	0	0	0	0.93	0	4.594144125593695e-49	0	0	2.426570649309934e-20	5.451202135795012e-23	0	0	0	4.594144125593695e-49	0	0	2.426570649309934e-20	5.451202135795012e-23	0	0	0	0	0	0	2.189677209840743	-8.126129360127623	12.99269280690039	0.004709345326962633	-0.001331728736812938	0	0	352.0220009669652	-2.265370792976496	376.347557892035	-0.0009309980904114031	-0.008347582889838997	0	0
50.41666666666666	0	0	0	0	0.93	0	4.594144125593695e-49	0	0	2.426570649309934e-20	5.451202135795012e-23	0	0	0	4.594144125593695e-49	0	0	2.426570649309934e-20	5.451202135795012e-23	0	0	0	0	0	0	2.188582392098124	-8.141552598008301	12.99360201942632	0.004709345326962633	-0.001331728736812938	0	0	352.0182405395493	-2.261552047109774	376.3457506830782	-0.0009309980904114031	-0.008347582889838997	0	0
50.43333333333333	0	0	0	0	0.93	0	4.594144125593695e-49	0	0	2.426570649309934e-20	5.451202135795012e-23	0	0	0	4.594144125593695e-49	0	0	2.426570649309934e-20	5.451202135795012e-23	0	0	0	0	0	0	2.187159311634954	-8.155665453295793	12.99619492969632	0.004709345326962633	-0.001331728736812938	0	0	352.0178610869259	-2.257586315059421	376.3472874693476	-0.0009309980904114031	-0.008347582889838997	0	0
50.45	0	0	0	0	0.93	0	4.594144125593695e-49	0	0	2.426570649309934e-20	5.451202135795012e-23	0	0	0	4.594144125593695e-49	0	0	2.426570649309934e-20	5.451202135795012e-23	0	0	0	0	0	0	2.185548752074826	-8.165059259174594	12.99790797912997	0.004709345326962633	-0.001331728736812938	0	0	352.020952323092	-2.250186329702904	376.3470893320446	-0.0009309980904114031	-0.008347582889838997	0	0
50.46666666666667	0	0	0	0	0.93	0	4.594144125593695e-49	0	0	2.426570649309934e-20	-1.048308103037514e-22	0	0	0	4.594144125593695e-49	0	0	2.426570649309934e-20	-1.048308103037514e-22	0	0	0	0	0	0	2.182240867586547	-8.176111320914558	12.99590453908278	0.004709345326962633	-0.001331728736812938	0	0	352.025304286441	-2.235160590286158	376.3468336413449	-0.0009309980904114031	-0.008347582889838997	0	0
50.48333333333333	0	0	0	0	0.93	0	4.594144125593695e-49	0	0	2.426570649309934e-20	-5.241540515187634e-23	0	0	0	4.594144125593695e-49	0	0	2.426570649309934e-20	-5.241540515187634e-23	0	0	0	0	0	0	2.18183367451774	-8.186015817882172	12.99270603545658	0.004709345326962633	-0.001331728736812938	0	0	352.028149426596	-2.219931032416109	376.3511072540611	-0.0009309980904114031	-0.008347582889838997	0	0
50.5	0	0	0	0	0.93	0	4.594144125593695e-49	0	0	2.426570649309934e-20	-5.241540515187634e-23	0	0	0	4.594144125593695e-49	0	0	2.426570649309934e-20	-5.241540515187634e-23	0	0	0	0	0	0	2.182349741215366	-8.195335017755093	12.99107016281566	0.004709345326962633	-0.001331728736812938	0	0	352.0242604909923	-2.205064477683932	376.356093105526	-0.0009309980904114031	-0.008347582889838997	0	0
50.51666666666667	0	0	0	0	0.93	0	4.594144125593695e-49	0	0	2.426570649309934e-20	-5.241540515187634e-23	0	0	0	4.594144125593695e-49	0	0	2.426570649309934e-20	-5.241540515187634e-23	0	0	0	0	0	0	2.183306051580205	-8.208720977907143	12.99611016063641	0.004709345326962633	-0.001331728736812938	0	0	352.015475592577	-2.189066863729819	376.3650431768997	-0.0009309980904114031	-0.008347582889838997	0	0
50.53333333333333	0	0	0	0	0.93	0	4.594144125593695e-49	0	0	2.426570649309934e-20	-5.241540515187634e-23	0	0	0	4.594144125593695e-49	0	0	2.426570649309934e-20	-5.241540515187634e-23	0	0	0	0	0	0	2.18219614075948	-8.224446395945451	13.01200929711752	0.004709345326962633	-0.001331728736812938	0	0	352.0057027967502	-2.174069469846462	376.3796783439469	-0.0009309980904114031	-0.008347582889838997	0	0
